<?xml version="1.0" encoding="UTF-8" standalone="no"?>
<!-- Created with Inkscape (http://www.inkscape.org/) -->

<svg
   xmlns:dc="http://purl.org/dc/elements/1.1/"
   xmlns:cc="http://creativecommons.org/ns#"
   xmlns:rdf="http://www.w3.org/1999/02/22-rdf-syntax-ns#"
   xmlns:svg="http://www.w3.org/2000/svg"
   xmlns="http://www.w3.org/2000/svg"
   xmlns:sodipodi="http://sodipodi.sourceforge.net/DTD/sodipodi-0.dtd"
   xmlns:inkscape="http://www.inkscape.org/namespaces/inkscape"
   width="210mm"
   height="297mm"
   viewBox="0 0 744.09448819 1052.3622047"
   id="svg2"
   version="1.1"
   inkscape:version="0.91 r13725"
   sodipodi:docname="imghtml.svg">
  <defs
     id="defs4">
    <marker
       markerWidth="421.14285"
       markerHeight="421.14288"
       refX="210.57143"
       refY="210.57144"
       orient="auto"
       id="marker3456">
      <path
         style="fill:#ffffff"
         d="M 0,210.57143 0,0 l 210.57142,0 210.57143,0 0,210.57143 0,210.57142 -105.18289,-0.0325 c -57.8506,-0.0177 -104.99783,-0.10718 -104.77163,-0.19848 0.39433,-0.15912 118.27094,-32.86758 120.14776,-33.33863 0.50184,-0.12595 0.99384,-0.44364 1.09335,-0.70598 0.39753,-1.04798 27.15039,-302.86397 26.90292,-303.50888 -0.24852,-0.6476 -9.92379,-0.69265 -148.76094,-0.69265 -138.80733,0 -148.51245,0.0452 -148.76079,0.69234 -0.30979,0.80729 26.56181,303.29378 26.98386,303.75023 0.15597,0.16869 26.55542,7.59866 58.66544,16.51106 32.11003,8.91239 59.30723,16.48827 60.43822,16.83526 1.86085,0.57093 -7.92484,0.63365 -102.92089,0.65956 L 0,421.14288 0,210.57146 Z"
         id="path3373"
         inkscape:connector-curvature="0" />
    </marker>
  </defs>
  <sodipodi:namedview
     id="base"
     pagecolor="#ffffff"
     bordercolor="#666666"
     borderopacity="1.0"
     inkscape:pageopacity="0.0"
     inkscape:pageshadow="2"
     inkscape:zoom="0.35"
     inkscape:cx="-920.39841"
     inkscape:cy="660.50259"
     inkscape:document-units="px"
     inkscape:current-layer="g3459"
     showgrid="false"
     inkscape:window-width="1366"
     inkscape:window-height="705"
     inkscape:window-x="-8"
     inkscape:window-y="-8"
     inkscape:window-maximized="1" />
  <metadata
     id="metadata7">
    <rdf:RDF>
      <cc:Work
         rdf:about="">
        <dc:format>image/svg+xml</dc:format>
        <dc:type
           rdf:resource="http://purl.org/dc/dcmitype/StillImage" />
        <dc:title></dc:title>
      </cc:Work>
    </rdf:RDF>
  </metadata>
  <g
     inkscape:label="Camada 1"
     inkscape:groupmode="layer"
     id="layer1">
    <g
       id="g3351"
       transform="translate(-14.285714,337.14286)" />
  </g>
  <g
     id="g3459"
     inkscape:groupmode="layer"
     inkscape:label="Camada 1 copiar">
    <g
       id="g7417"
       transform="matrix(0.18461755,0,0,0.18461755,241.10915,20.470519)">
      <path
         sodipodi:nodetypes="cccccccccsssscccssssssscscccccscsccc"
         inkscape:connector-curvature="0"
         id="path3461"
         d="m -918.88006,921.5266 -49.3033,-538.63804 575.6155,49.30325 513.9864,-12.3258 -12.3258,538.63801 -61.629097,649.57028 -464.683203,172.5614 -489.3347,-221.8646 z m 667.2331,531.0341 c 87.6495,-24.2954 159.827203,-44.6378 160.394903,-45.2055 1.6444,-1.6444 44.5938,-486.19453 43.2268,-487.67921 -0.6781,-0.73641 -83.824603,-1.13567 -184.770003,-0.88715 l -183.5371,0.45191 -0.4624,76.73603 -0.4624,76.73602 97.2631,0 c 78.0357,0 97.8998,0.4656 100.484,2.3551 3.0943,2.2627 2.8571,6.4288 -6.0366,106.0111 -5.7004,63.8265 -10.046,104.4728 -11.3095,105.7823 -1.1285,1.1696 -40.7748,12.5675 -88.1027,25.3287 -47.3279,12.7613 -87.448,23.6347 -89.1557,24.1632 -2.8967,0.8965 -3.105,6.306 -3.105,80.6823 0,74.7466 0.1938,79.7207 3.105,79.7099 1.7077,-0.01 74.8181,-19.8894 162.4676,-44.1847 z M -24.796957,675.28237 c 3.5887,-39.52128 6.5827,-74.45512 6.6535,-77.63081 l 0.1285,-5.7739 -199.158703,0.4512 -199.1589,0.45121 -0.4631,75.40533 c -0.255,41.47291 -0.079,76.4069 0.3909,77.63105 0.6791,1.76965 40.2156,2.1332 192.9685,1.77426 l 192.114403,-0.45149 6.5248,-71.85685 z"
         style="fill:#eae9e9" />
      <path
         sodipodi:nodetypes="cccccccccccsccsscsssscsssscscsscsssccc"
         inkscape:connector-curvature="0"
         id="path3463"
         d="m -1005.1608,1106.4138 -73.9549,-785.15433 661.89614,-12.3258 649.5704,12.3258 -86.2807,748.17693 -49.303197,575.6154 -513.986503,135.5839 -538.6379,-147.9097 z m 752.05874,349.2988 c 88.8009,-24.5392 162.369903,-45.5028 163.486803,-46.5858 1.2761,-1.2375 10.0152,-91.6294 23.519,-243.2663 11.8186,-132.7133 21.4838,-243.0934 21.4781,-245.28904 l -0.01,-3.99207 -292.805803,0 c -232.6353,0 -292.9701,-0.45572 -293.6054,-2.21781 -1.4882,-4.12816 -15.0529,-161.35836 -14.0594,-162.96584 0.5773,-0.93414 128.1667,-1.59516 307.8809,-1.59516 243.883303,0 307.068203,-0.4554 307.738503,-2.21781 1.3315,-3.50095 14.718,-154.64969 13.8279,-156.13341 -1.1285,-1.88118 -802.125203,-1.67372 -803.288203,0.20794 -1.7738,2.87008 41.7896,481.8614 43.9504,483.246 1.1189,0.7169 126.3012,1.3157 278.1829,1.3307 219.2958,0.022 276.3108,0.4837 276.9368,2.2449 1.2887,3.6253 -17.4017,205.339 -19.1797,206.9953 -0.898,0.8365 -41.7501,12.3176 -90.7824,25.5136 l -89.1498,23.9926 -85.6132,-22.9895 c -47.0873,-12.6443 -87.3544,-23.7077 -89.4825,-24.5853 -4.7167,-1.9453 -4.5642,-0.9288 -10.3842,-69.205 -2.4539,-28.7871 -4.8567,-54.1366 -5.3398,-56.3322 l -0.8781,-3.9921 -78.0886,0 c -69.4523,0 -78.2072,0.3094 -79.1617,2.7965 -1.4977,3.9031 20.2989,245.905 22.3313,247.9374 1.832,1.832 321.8342,91.2929 327.492,91.5546 1.9516,0.09 76.2037,-19.9132 165.0045,-44.4524 z"
         style="fill:#ef8c66" />
      <path
         sodipodi:nodetypes="cccccccccssscccscsssscssscscssscscsscs"
         inkscape:connector-curvature="0"
         id="path3465"
         d="m -1017.4866,1007.8073 -73.9549,-674.22198 674.22194,-12.32585 624.9188,-12.3258 -36.9774,661.89618 -73.954897,637.24445 -513.986503,172.5614 -526.3121,-135.5839 z m 767.93314,450.0118 c 88.8008,-24.6399 162.136203,-45.4415 162.967603,-46.226 1.4756,-1.3923 43.2783,-460.64872 44.1691,-485.25537 l 0.4497,-12.4197 -293.114303,-0.44879 -293.1142,-0.44879 -0.9404,-5.76109 c -2.1954,-13.44998 -13.5801,-150.91398 -12.6906,-153.23205 0.8439,-2.19924 42.1184,-2.39755 305.7403,-1.46918 205.8655,0.72499 305.606203,0.48641 307.357803,-0.7353 2.0017,-1.39605 4.1041,-18.32375 9.2179,-74.2158 8.06,-88.09476 8.0773,-88.62392 2.9558,-90.24941 -6.9685,-2.21176 -804.894303,1.17989 -805.685203,3.42462 -0.9961,2.82711 42.0346,482.40426 43.4942,484.74186 0.8498,1.3609 82.3293,2.2762 278.3781,3.1271 152.4472,0.6618 277.425,1.4514 277.7284,1.7549 0.5832,0.5832 -17.2647,202.2225 -17.9701,203.0195 -0.2265,0.2557 -40.4815,11.2771 -89.4559,24.492 l -89.0445,24.0271 -86.4363,-23.3107 c -47.54,-12.8208 -87.3506,-24.2415 -88.4681,-25.3792 -1.206,-1.2278 -4.2175,-26.7485 -7.4099,-62.7943 -2.9579,-33.3992 -5.8832,-61.5432 -6.5006,-62.5421 -0.739,-1.1957 -28.6862,-1.8162 -81.8015,-1.8162 -65.2915,0 -80.8509,0.4478 -81.58,2.3479 -0.8708,2.2693 19.7164,241.163 21.4636,249.0642 0.6407,2.8971 3.2651,4.6433 10.1664,6.7649 40.6252,12.4882 320.7582,85.4774 324.231,85.074 2.4395,-0.2834 77.0908,-16.8942 165.8917,-41.5341 z"
         style="fill:#ef6428" />
      <path
         sodipodi:nodetypes="cccccccccsccscccccscscsssscsssscsssscscscccscc"
         inkscape:connector-curvature="0"
         id="path3467"
         d="m -1017.4866,933.85239 -75.769,-613.85319 700.68774,-11.06553 625.1956,1.26027 -61.9059,623.65845 -61.6291,711.19941 -526.3123,135.5839 -538.6379,-135.5839 z m 814.50224,675.37811 c 114.907003,-31.8196 209.5300029,-58.4159 210.2732029,-59.103 1.7179,-1.5882 101.2285971,-1115.66974 99.9500971,-1119.00143 -0.8077,-2.10482 -40.054997,-2.40801 -262.2606,-2.02578 l -261.3107,0.44939 -0.8872,78.06672 -0.8871,78.06669 -202.2637,0.88709 -202.2636,0.88714 -0.5112,4.43561 c -0.9925,8.6115 42.2143,483.12777 44.2098,485.53217 1.6332,1.968 33.4071,2.3847 181.8475,2.3847 l 179.8683,0 0,125.0841 c 0,107.1313 -0.3632,125.0841 -2.5306,125.0841 -2.4843,0 -173.5374,-45.9569 -174.4501,-46.8696 -0.2563,-0.2562 -2.9469,-28.3387 -5.9791,-62.4054 -3.0323,-34.0667 -6.3185,-62.9374 -7.303,-64.1572 -1.3843,-1.7152 -19.986,-2.2179 -82.0835,-2.2179 -62.081,0 -80.7064,0.5031 -82.1139,2.2179 -2.832,3.4502 23.6591,252.3726 26.9983,254.5098 1.3834,0.8854 74.3689,17.4347 163.9149,44.534 l 163.9202,44.1845 -0.8157,83.9578 c -0.4218,43.4028 0.8181,79.9147 1.2749,81.1345 0.4568,1.2198 1.6519,2.2178 2.6557,2.2178 1.0038,0 95.84,-26.0342 210.7471,-57.8537 z m -424.4656,-698.4032 c -0.4233,-1.22759 -3.8286,-36.85154 -7.5676,-79.16427 -4.554,-51.53757 -6.1869,-77.16577 -4.9466,-77.63958 1.0183,-0.38916 51.3528,-0.50028 111.8545,-0.2472 l 110.003,0.46 0,78.95384 0,78.95379 -104.287,0.45778 c -82.521,0.36239 -104.4476,-0.009 -105.0563,-1.77426 z"
         style="fill:#e34c25" />
    </g>
    <g
       transform="matrix(0.44109607,0,0,0.44109607,-1401.3886,279.85806)"
       id="g3471" />
  </g>
</svg>
